<?xml version="1.0" standalone="no"?>
<!DOCTYPE svg PUBLIC "-//W3C//DTD SVG 20010904//EN"
 "http://www.w3.org/TR/2001/REC-SVG-20010904/DTD/svg10.dtd">
<svg version="1.0" xmlns="http://www.w3.org/2000/svg"
 width="644.000000pt" height="496.000000pt" viewBox="0 0 644.000000 496.000000"
 preserveAspectRatio="xMidYMid meet">

<g transform="translate(0.000000,496.000000) scale(0.100000,-0.100000)"
fill="#000000" stroke="none">
<path d="M2871 2961 c-26 -26 -29 -89 -4 -98 38 -15 72 79 39 106 -12 10 -19
8 -35 -8z"/>
<path d="M3422 2864 c-77 -38 -104 -89 -101 -187 l3 -74 -101 -134 c-220 -292
-328 -370 -364 -262 -16 49 -6 233 20 383 28 155 28 170 -4 170 -32 0 -72 -38
-81 -77 -3 -15 -10 -44 -15 -64 -5 -21 -51 -92 -107 -165 -201 -265 -311 -344
-372 -266 -33 41 -23 116 44 317 31 94 59 188 63 211 7 50 -17 101 -51 110
-82 20 -163 -69 -294 -320 -40 -78 -70 -132 -68 -121 59 229 74 355 48 403
-36 65 -109 66 -171 2 -47 -48 -89 -133 -152 -304 -26 -72 -48 -121 -49 -109
0 12 11 78 25 148 14 69 23 131 20 136 -11 16 -61 10 -79 -10 -13 -14 -26 -74
-47 -213 -43 -286 -38 -336 25 -294 19 12 34 46 66 148 60 191 135 378 177
441 38 57 84 93 109 83 18 -7 18 -6 -22 -225 -32 -175 -35 -264 -11 -288 13
-14 21 -15 35 -7 9 6 55 85 102 175 101 194 149 269 198 309 37 31 72 39 72
18 0 -6 -20 -72 -44 -147 -94 -289 -100 -427 -21 -489 59 -46 144 -21 238 70
46 46 171 197 232 282 l20 28 0 -148 c0 -162 12 -208 62 -241 31 -21 91 -20
133 2 52 26 173 157 280 302 l95 129 81 -145 82 -146 -58 -27 c-158 -76 -210
-241 -105 -338 22 -21 36 -25 84 -25 83 1 141 37 177 110 24 51 26 63 21 138
-3 45 -12 101 -20 124 l-16 42 32 10 c63 21 188 103 257 168 67 63 70 64 70
38 0 -47 22 -105 48 -126 54 -42 89 -16 166 125 32 58 60 106 61 106 2 0 -4
-24 -12 -52 -22 -79 -29 -312 -10 -365 l14 -41 -61 -7 c-99 -11 -187 -34 -254
-67 -34 -17 -65 -35 -68 -40 -14 -23 10 -19 68 10 99 50 168 64 323 68 248 6
258 6 435 -31 434 -92 708 -93 902 -3 40 18 83 47 103 70 30 33 35 45 35 87 0
52 -8 65 -34 55 -20 -8 -20 -32 0 -55 14 -16 14 -20 0 -47 -30 -57 -137 -114
-261 -137 -113 -22 -308 -19 -441 6 -311 59 -413 76 -497 84 l-67 7 67 71 c72
77 273 342 273 361 -1 16 -44 -35 -135 -160 -43 -60 -115 -146 -160 -191 -79
-81 -82 -83 -128 -83 -43 0 -49 3 -58 28 -32 79 43 447 123 605 15 30 17 42 7
53 -19 24 -55 16 -84 -18 -25 -30 -30 -31 -90 -29 -114 4 -185 -45 -240 -165
-39 -84 -107 -156 -210 -223 -92 -60 -173 -97 -184 -85 -26 26 -180 321 -186
353 -10 61 25 125 87 157 97 50 185 -55 132 -158 -12 -23 -13 -29 -2 -26 20 7
38 49 38 91 0 112 -102 159 -218 101z m831 -70 c4 -4 -23 -63 -58 -133 -124
-241 -142 -263 -156 -191 -19 90 42 260 109 305 34 23 90 33 105 19z m-726
-579 c39 -153 -9 -295 -102 -295 -128 0 -167 143 -70 258 31 37 122 93 144 90
8 -2 20 -25 28 -53z"/>
<path d="M2506 2184 c-102 -69 -269 -112 -471 -121 -114 -5 -174 -1 -325 18
-137 17 -236 23 -380 24 -183 0 -202 -2 -305 -29 -214 -55 -315 -130 -315
-234 0 -47 15 -65 42 -51 18 10 18 12 4 34 -26 40 -20 74 21 112 81 74 219
123 406 143 106 12 126 10 452 -26 222 -26 481 -23 614 5 57 12 130 33 162 45
63 26 149 81 149 96 0 16 -13 12 -54 -16z"/>
</g>
</svg>
